PathFileType	4	(X/Y/Z)	/Users/itak/Documents/Research/Walk-IL/dataset/trc/00279_00010.trc
DataRate	CameraRate	NumFrames	NumMarkers	Units	OrigDataRate	OrigDataStartFrame	OrigNumFrames
100.000000	100.000000	4	53	mm	100.000000	282	752
Frame#	Time	RPSI			LPSI			L3			STRN			T10			C7			CLAV			RBAK			LBAK			LSHO			LUPA			LAEL			LAOL			LWTS			LWPS			LFRA			LIFD			LHPS			LHTS			RSHO			RUPA			RAEL			RAOL			RWTS			RWPS			RFRA			RIFD			RHTS			RHPS			RBHD			LFHD			RFHD			LBHD			LHIP			RHIP			RASI			LASI			LKNE			LTHI			LANK			LTIP			LTOE			LMT1			LMT5			LHEE			RKNE			RTHI			RANK			RTIP			RTOE			RMT1			RMT5			RHEE			
		X1	Y1	Z1	X2	Y2	Z2	X3	Y3	Z3	X4	Y4	Z4	X5	Y5	Z5	X6	Y6	Z6	X7	Y7	Z7	X8	Y8	Z8	X9	Y9	Z9	X10	Y10	Z10	X11	Y11	Z11	X12	Y12	Z12	X13	Y13	Z13	X14	Y14	Z14	X15	Y15	Z15	X16	Y16	Z16	X17	Y17	Z17	X18	Y18	Z18	X19	Y19	Z19	X20	Y20	Z20	X21	Y21	Z21	X22	Y22	Z22	X23	Y23	Z23	X24	Y24	Z24	X25	Y25	Z25	X26	Y26	Z26	X27	Y27	Z27	X28	Y28	Z28	X29	Y29	Z29	X30	Y30	Z30	X31	Y31	Z31	X32	Y32	Z32	X33	Y33	Z33	X34	Y34	Z34	X35	Y35	Z35	X36	Y36	Z36	X37	Y37	Z37	X38	Y38	Z38	X39	Y39	Z39	X40	Y40	Z40	X41	Y41	Z41	X42	Y42	Z42	X43	Y43	Z43	X44	Y44	Z44	X45	Y45	Z45	X46	Y46	Z46	X47	Y47	Z47	X48	Y48	Z48	X49	Y49	Z49	X50	Y50	Z50	X51	Y51	Z51	X52	Y52	Z52	X53	Y53	Z53	

283	2.82	1155.187377929688	966.979248046875	445.407470703125	984.2320556640625	958.1231689453125	408.4380798339844	1078.194091796875	1033.063354492188	412.3514404296875	1088.061401367188	1211.112426757812	169.5696411132812	1075.038452148438	1146.506591796875	433.0585327148438	1041.244018554688	1388.805908203125	393.7261657714844	1067.319091796875	1310.645629882812	232.3362274169922	1126.174560546875	1260.86669921875	447.30810546875	941.7255249023438	1341.490234375	402.0419006347656	894.570556640625	1345.439331054688	306.3739624023438	826.2289428710938	1229.628540039062	342.7433776855469	818.7882080078125	1028.626708984375	363.5599975585938	888.9799194335938	1022.646606445312	417.5169677734375	859.4310302734375	799.9868774414062	299.877197265625	803.099609375	790.9953002929688	344.7351989746094	809.3978271484375	923.1676025390625	361.7605285644531	867.2532958984375	612.95556640625	321.3856201171875	808.8553466796875	703.2977905273438	351.6179504394531	840.5560302734375	698.3294677734375	293.3168334960938	1203.353149414062	1387.75	336.4139099121094	1275.3642578125	1337.993408203125	348.9789428710938	1343.268432617188	1079.056030273438	381.3115234375	1251.183227539062	1063.621459960938	397.704833984375	1330.568359375	850.0843505859375	279.5848388671875	1394.935302734375	853.6809692382812	334.1920776367188	1364.72021484375	1012.505615234375	363.0360412597656	1329.417358398438	668.064453125	290.76708984375	1354.49365234375	733.8222045898438	260.5711669921875	1398.270874023438	738.390380859375	317.117431640625	1105.449829101562	1560.924926757812	354.6025085449219	953.0958862304688	1567.980346679688	205.8392791748047	1043.608032226562	1580.564819335938	190.2853546142578	963.9481201171875	1532.001586914062	378.5983276367188	904.5743408203125	909.9757690429688	317.2920837402344	1277.502319335938	914.2261352539062	370.5975341796875	1234.710327148438	918.296875	237.5317077636719	985.9696044921875	915.4606323242188	196.1069488525391	1023.146240234375	467.4994812011719	147.0096893310547	967.8717651367188	597.5433959960938	187.9334716796875	1110.30810546875	36.71083068847656	193.4536895751953	1058.71875	234.6692810058594	163.239501953125	1168.013549804688	26.97819709777832	-15.86225605010986	1206.7060546875	16.90146255493164	55.86772918701172	1098.471313476562	34.39470672607422	70.46219635009766	1170.61865234375	24.37088966369629	237.684814453125	1301.119018554688	446.1781616210938	354.6811828613281	1299.460815429688	703.3311157226562	323.2563171386719	1240.666870117188	196.6498107910156	724.8723754882812	1286.915283203125	347.3654174804688	427.4786987304688	1168.558959960938	33.19742584228516	647.914306640625	1137.1943359375	89.16284942626953	660.6041870117188	1244.781127929688	89.82684326171875	707.869140625	1194.62548828125	249.9402313232422	736.7092895507812	
284	2.83	1155.768432617188	966.9219360351562	435.728515625	984.3124389648438	959.487060546875	400.2557678222656	1078.2431640625	1034.4912109375	403.0772094726562	1086.987548828125	1211.772338867188	159.8196258544922	1075.528686523438	1147.913818359375	423.55859375	1041.63671875	1390.155883789062	383.966064453125	1066.706787109375	1311.435913085938	222.4503631591797	1126.946166992188	1262.21923828125	437.1935119628906	942.2089233398438	1342.87744140625	393.0991821289062	894.4937133789062	1346.478637695312	297.4981689453125	826.2853393554688	1230.784912109375	334.3191833496094	818.2981567382812	1029.58154296875	354.951416015625	888.5364379882812	1023.69189453125	409.0999145507812	859.5277709960938	801.9835205078125	289.1729431152344	802.8930053710938	792.3670043945312	333.5352478027344	809.1325073242188	924.3687744140625	352.2039184570312	867.80224609375	614.802490234375	308.0286254882812	808.8943481445312	704.5214233398438	339.2382202148438	840.9943237304688	700.5053100585938	281.1300964355469	1203.427368164062	1388.924072265625	325.4213256835938	1275.6611328125	1339.173950195312	337.5035095214844	1343.384765625	1079.848999023438	369.0518493652344	1251.51123046875	1064.988647460938	387.3790893554688	1327.842041015625	849.8108520507812	269.8661804199219	1393.402954101562	854.0213012695312	323.0244140625	1364.097290039062	1013.159057617188	350.7277526855469	1325.156372070312	667.8468627929688	284.62353515625	1350.389038085938	732.8626708984375	252.4118499755859	1395.350219726562	738.218994140625	308.0067138671875	1105.242919921875	1562.023193359375	344.2762145996094	951.1505126953125	1569.071655273438	197.3191375732422	1041.440063476562	1581.964721679688	180.7200317382812	964.1556396484375	1532.623046875	369.8398742675781	903.5928955078125	911.5065307617188	309.9111022949219	1276.931518554688	913.9659423828125	359.3397216796875	1233.128051757812	918.68408203125	226.6594390869141	983.9004516601562	916.6665649414062	188.0595397949219	1021.668579101562	466.8104553222656	143.9986572265625	966.4418334960938	597.3999633789062	183.4029083251953	1110.206665039062	36.64654159545898	193.5342407226562	1058.084716796875	234.2665863037109	162.4689483642578	1167.931640625	27.10323143005371	-15.81357192993164	1206.621337890625	16.95627403259277	55.88830184936523	1098.348266601562	34.28949356079102	70.49392700195312	1170.571655273438	24.41242408752441	237.7191162109375	1303.651489257812	446.8994445800781	327.8638000488281	1299.4833984375	703.806396484375	307.03271484375	1250.042114257812	204.3108367919922	702.5286254882812	1290.299438476562	348.7897644042969	400.7123107910156	1173.45458984375	36.28730392456055	631.382080078125	1143.556640625	95.49584197998047	643.5450439453125	1251.973388671875	96.61293029785156	688.2429809570312	1204.866943359375	258.27978515625	714.2567749023438	
285	2.84	1156.455810546875	966.9915161132812	426.135986328125	984.4749755859375	960.706787109375	392.5049133300781	1078.289794921875	1035.796752929688	394.0631713867188	1085.969604492188	1212.349609375	150.3384399414062	1075.96728515625	1149.260620117188	414.3042297363281	1041.989624023438	1391.499389648438	374.3679809570312	1066.134155273438	1312.118408203125	212.8055572509766	1127.641479492188	1263.496337890625	427.2856140136719	942.61572265625	1344.28369140625	384.2952575683594	894.4248657226562	1347.501098632812	288.7745971679688	826.3405151367188	1231.879028320312	325.9922790527344	817.8367309570312	1030.470458984375	346.3289489746094	888.0401000976562	1024.652099609375	400.7780151367188	859.6649169921875	804.0049438476562	278.3945007324219	802.6680297851562	793.8015747070312	322.1805419921875	808.8982543945312	925.5621948242188	342.59228515625	868.0322875976562	616.6736450195312	294.4260559082031	808.7632446289062	705.8352661132812	326.6231079101562	841.3212890625	702.764404296875	268.7483520507812	1203.5	1389.985595703125	314.6816101074219	1275.923828125	1340.235961914062	326.3478088378906	1343.469482421875	1080.503051757812	357.086669921875	1251.807373046875	1066.192504882812	377.1925354003906	1325.45361328125	849.7247924804688	259.8926391601562	1392.000610351562	854.3502807617188	311.8585205078125	1363.519165039062	1013.71630859375	338.6777648925781	1321.58154296875	667.7451782226562	277.5830078125	1346.91748046875	732.1914672851562	243.7111206054688	1392.806762695312	738.1844482421875	298.5281982421875	1105.052612304688	1563.114135742188	333.97607421875	949.2777099609375	1570.050170898438	188.8057403564453	1039.337158203125	1583.215576171875	171.1734161376953	964.3860473632812	1533.289306640625	361.0977478027344	902.6578369140625	912.8412475585938	303.1515502929688	1276.359741210938	913.881103515625	348.0411376953125	1231.34521484375	919.0486450195312	215.8146820068359	981.5889892578125	917.769287109375	180.4248352050781	1020.16259765625	466.1596984863281	141.1299133300781	964.955078125	597.253662109375	179.1194152832031	1110.124633789062	36.56514358520508	193.6266479492188	1057.436157226562	233.8940582275391	161.6667633056641	1167.843994140625	27.18737411499023	-15.7716064453125	1206.538208007812	16.98538017272949	55.90669250488281	1098.2119140625	34.17106246948242	70.51696014404297	1170.5205078125	24.48125648498535	237.7468414306641	1305.36376953125	448.2586975097656	300.9691467285156	1299.203491210938	704.4681396484375	290.8128051757812	1259.381225585938	210.9771423339844	679.2003784179688	1293.116455078125	350.6451110839844	373.6069946289062	1179.115844726562	40.12089157104492	611.919921875	1150.380615234375	101.6727447509766	624.23046875	1259.609375	102.8651733398438	666.4010620117188	1214.990356445312	265.4926452636719	691.2117309570312	
286	2.85	1157.2763671875	967.2095336914062	416.5827941894531	984.7483520507812	961.78125	385.1680297851562	1078.35693359375	1036.990600585938	385.2896728515625	1084.956420898438	1212.903076171875	141.0927429199219	1076.372680664062	1150.561157226562	405.2850036621094	1042.3154296875	1392.841430664062	364.9370422363281	1065.572265625	1312.742553710938	203.4017181396484	1128.281494140625	1264.714965820312	417.5702819824219	942.967041015625	1345.725219726562	375.6592102050781	894.35791015625	1348.541381835938	280.2516174316406	826.3858642578125	1232.948120117188	317.8042602539062	817.4276123046875	1031.338500976562	337.7232360839844	887.5322265625	1025.558715820312	392.5465698242188	859.8076171875	806.0855712890625	267.5535583496094	802.4285278320312	795.336181640625	310.7246704101562	808.706298828125	926.7816772460938	332.9644775390625	867.9226684570312	618.6054077148438	280.6234741210938	808.4605102539062	707.2833862304688	313.8378601074219	841.4952392578125	705.1347045898438	256.2165222167969	1203.564819335938	1390.959228515625	304.1741943359375	1276.144775390625	1341.20849609375	315.48291015625	1343.475219726562	1081.063354492188	345.4649353027344	1252.010375976562	1067.267578125	367.1106872558594	1323.4228515625	849.8483276367188	249.6616973876953	1390.698852539062	854.68408203125	300.7586059570312	1362.958984375	1014.212524414062	326.9483337402344	1318.718383789062	667.7689208984375	269.5001831054688	1344.132446289062	731.8471069335938	234.401123046875	1390.632446289062	738.3011474609375	288.6762084960938	1104.87939453125	1564.213012695312	323.7034606933594	947.475830078125	1570.926391601562	180.3024597167969	1037.296997070312	1584.322387695312	161.6462707519531	964.6405029296875	1534.024780273438	352.38037109375	901.7933959960938	913.9973754882812	297.0400695800781	1275.800048828125	914.0243530273438	336.6263427734375	1229.307373046875	919.4671630859375	204.9460601806641	979.0012817382812	918.7914428710938	173.1949920654297	1018.674926757812	465.5549621582031	138.3693542480469	963.44580078125	597.1064453125	175.0538024902344	1110.075927734375	36.47235488891602	193.7235717773438	1056.804931640625	233.5600738525391	160.7980651855469	1167.759033203125	27.23796653747559	-15.7375431060791	1206.463500976562	17.00023460388184	55.92203521728516	1098.072998046875	34.04973220825195	70.53035736083984	1170.472534179688	24.57271957397461	237.7687530517578	1306.224853515625	450.2658996582031	274.1300964355469	1298.612060546875	705.3970947265625	274.5458679199219	1268.622436523438	216.5591888427734	654.9945068359375	1295.332397460938	352.9308776855469	346.3028259277344	1185.50830078125	44.49753189086914	589.5751342773438	1157.608032226562	107.459846496582	602.73828125	1267.61669921875	108.4309463500977	642.4497680664062	1224.93408203125	271.4888000488281	667.6780395507812	
